<svg width="26" height="21" viewBox="0 0 26 21" fill="none" xmlns="http://www.w3.org/2000/svg">
<path fill-rule="evenodd" clip-rule="evenodd" d="M25.2869 0H0.713143C0.319429 0 0 0.323314 0 0.723499V16.8892C0 17.2803 0.319429 17.6127 0.713143 17.6127H9.47886C9.87257 17.6127 10.192 17.9368 10.192 18.3279V20.5368C10.192 20.9363 10.4817 21.1096 10.8309 20.928L12.3686 20.1065C12.7177 19.9256 13.2897 19.9256 13.6389 20.1065L14.612 20.6273L15.1766 20.928C15.496 21.0945 15.7634 20.9581 15.8006 20.6273C15.808 20.5971 15.808 20.567 15.808 20.5368V18.3279C15.808 17.9368 16.1274 17.6127 16.5211 17.6127H25.2869C25.6806 17.6127 26 17.2803 26 16.8892V0.723499C26 0.323314 25.6806 0 25.2869 0ZM2.71695 16C2.3286 16 2 15.6788 2 15.2986V2.70069C2 2.31458 2.3286 2 2.71695 2H11.283C11.6863 2 12 2.31458 12 2.70069V15.2986C12 15.4964 11.9104 15.6854 11.7685 15.8095C11.6415 15.9263 11.4772 16 11.283 16H2.71695ZM24 15.2986C24 15.6788 23.6786 16 23.2825 16H14.71C14.3139 16 14 15.6788 14 15.2986V2.70069C14 2.31458 14.3139 2 14.71 2H23.2825C23.6786 2 24 2.31458 24 2.70069V15.2986Z" fill="#95A5A6"/>
<path fill-rule="evenodd" clip-rule="evenodd" d="M5 0.497382C5 0.649215 4.89256 0.78534 4.72727 0.874346C4.58678 0.953403 4.41322 1 4.21488 1H0.793388C0.355372 1 0 0.775393 0 0.497382C0 0.298953 0.181818 0.125654 0.454545 0.0471204C0.553719 0.0157068 0.669421 0 0.793388 0H4.21488C4.41322 0 4.58678 0.0418848 4.72727 0.125654C4.89256 0.209948 5 0.34555 5 0.497382Z" transform="translate(5 10)" fill="#95A5A6"/>
<path fill-rule="evenodd" clip-rule="evenodd" d="M5 0.497382C5 0.649215 4.89256 0.78534 4.72727 0.874346C4.58678 0.95288 4.40496 1 4.20661 1H0.785124C0.355372 1 0 0.775393 0 0.497382C0 0.219895 0.355372 0 0.785124 0H4.20661C4.40496 0 4.58678 0.047644 4.72727 0.125654C4.89256 0.21466 5 0.34555 5 0.497382Z" transform="translate(5 7)" fill="#95A5A6"/>
<path fill-rule="evenodd" clip-rule="evenodd" d="M5 0.497382C5 0.649215 4.89274 0.790576 4.71947 0.880105C4.57921 0.953403 4.40594 1 4.20792 1H0.792079C0.594059 1 0.420792 0.953403 0.280528 0.880105C0.107261 0.790576 0 0.649215 0 0.497382C0 0.350785 0.0990099 0.219895 0.255776 0.136126C0.321782 0.0947644 0.387789 0.0628272 0.470297 0.0471204C0.569307 0.0157068 0.676568 0 0.792079 0H4.20792C4.40594 0 4.57921 0.0418848 4.71947 0.120942C4.89274 0.209948 5 0.34555 5 0.497382Z" transform="translate(18 10)" fill="#95A5A6"/>
<path fill-rule="evenodd" clip-rule="evenodd" d="M5 0.497382C5 0.649215 4.89256 0.78534 4.72727 0.874346C4.58678 0.95288 4.41322 1 4.21488 1H0.793388C0.570248 1 0.371901 0.942932 0.231405 0.853927C0.0909091 0.759162 0 0.633508 0 0.497382C0 0.335602 0.115702 0.193717 0.305785 0.104712C0.438017 0.0366492 0.61157 0 0.793388 0H4.21488C4.41322 0 4.58678 0.047644 4.72727 0.125654C4.89256 0.21466 5 0.34555 5 0.497382Z" transform="translate(18 7)" fill="#95A5A6"/>
</svg>
