<svg width="22" height="22" viewBox="0 0 22 22" fill="#95A5A6" xmlns="http://www.w3.org/2000/svg">
  <path clip-rule="evenodd"
        d="M19.9962 5.43706C19.9833 5.40711 19.9729 5.37656 19.9558 5.34722C19.9289 5.30078 19.8972 5.25922 19.8642 5.2195C18.9548 3.70272 17.6843 2.43283 16.1682 1.52411C16.1291 1.49111 16.0875 1.45933 16.0417 1.43306C16.0123 1.41594 15.9818 1.40556 15.9512 1.39211C14.3972 0.510278 12.6054 0 10.6944 0C8.78289 0 6.99111 0.510278 5.43706 1.39272C5.40711 1.40556 5.37594 1.41594 5.34722 1.43306C5.30139 1.45933 5.25983 1.49111 5.22072 1.52411C3.70394 2.43283 2.43344 3.70333 1.52411 5.22011C1.49111 5.25983 1.45933 5.30078 1.43306 5.34722C1.41594 5.37656 1.40556 5.40711 1.39272 5.43706C0.510278 6.99172 0 8.7835 0 10.6944C0 16.5911 4.79783 21.3889 10.6944 21.3889C16.5911 21.3889 21.3889 16.5911 21.3889 10.6944C21.3889 8.7835 20.8786 6.99172 19.9962 5.43706ZM10.6945 19.5557C6.11794 19.5557 2.34127 16.068 1.8811 11.6112H2.84299C3.34899 11.6112 3.75966 11.2005 3.75966 10.6945C3.75966 10.1885 3.34899 9.77788 2.84299 9.77788H1.8811C1.97949 8.82699 2.23433 7.92316 2.60955 7.08533L3.43638 7.5626C3.5806 7.64633 3.73827 7.68544 3.8941 7.68544C4.21066 7.68544 4.51866 7.52166 4.68855 7.2271C4.94155 6.78833 4.79121 6.22794 4.35305 5.97494L3.5311 5.5001C4.08049 4.74477 4.74477 4.08049 5.5001 3.5311L5.97433 4.35305C6.14421 4.64699 6.45283 4.81138 6.76938 4.81138C6.92521 4.81138 7.08227 4.77227 7.2271 4.68855C7.66527 4.43555 7.8156 3.87516 7.5626 3.43638L7.08533 2.60955C7.92377 2.23371 8.82699 1.97949 9.77788 1.8811V2.84238C9.77788 3.34838 10.1879 3.75905 10.6945 3.75905C11.2012 3.75905 11.6112 3.34838 11.6112 2.84238V1.8811C12.5621 1.97949 13.4653 2.23371 14.3038 2.60955L13.8265 3.43638C13.5735 3.87516 13.7238 4.43555 14.162 4.68855C14.3068 4.77227 14.4639 4.81138 14.6197 4.81138C14.9363 4.81138 15.2449 4.64699 15.4148 4.35305L15.889 3.5311C16.6443 4.08049 17.3086 4.74477 17.858 5.5001L17.036 5.97494C16.5979 6.22794 16.4475 6.78833 16.7005 7.2271C16.8704 7.52166 17.1784 7.68544 17.495 7.68544C17.6508 7.68544 17.8085 7.64633 17.9527 7.5626L18.7795 7.08533C19.1548 7.92316 19.4096 8.82699 19.508 9.77788H18.5461C18.0401 9.77788 17.6294 10.1885 17.6294 10.6945C17.6294 11.2005 18.0401 11.6112 18.5461 11.6112H19.508C19.0478 16.068 15.2712 19.5557 10.6945 19.5557Z"
        transform="translate(0.305664 0.574463)" fill="#95A5A6"/>
  <path clip-rule="evenodd"
        d="M5.29467 3.795C4.92922 2.61922 3.95939 1.08533 3.48456 0.3795C3.14356 -0.1265 2.30389 -0.1265 1.96289 0.3795C1.49233 1.07983 0.5335 2.59539 0.161333 3.76689C0.129556 3.86589 0.0922778 3.96183 0.0715 4.06572C0.0275 4.25028 0 4.42383 0 4.57783C0 6.07994 1.22161 7.30156 2.72372 7.30156C4.22583 7.30156 5.44744 6.07994 5.44744 4.57783C5.44744 4.42383 5.41994 4.24906 5.37594 4.06328C5.357 3.971 5.32278 3.88361 5.29467 3.795ZM2.72374 5.46811C2.66385 5.46811 2.60519 5.46139 2.54835 5.45039C2.15113 5.36911 1.85107 5.0165 1.85107 4.59483C1.85107 4.11389 2.2428 3.72339 2.72374 3.72339C3.20469 3.72339 3.59641 4.11389 3.59641 4.59483C3.59641 5.0165 3.29635 5.36911 2.89913 5.45039C2.8423 5.46139 2.78363 5.46811 2.72374 5.46811Z"
        transform="translate(8.33984 7.89868)" fill="#95A5A6"/>
</svg>
