<svg width="16" height="22" viewBox="0 0 16 22" fill="none" xmlns="http://www.w3.org/2000/svg">
<path fill-rule="evenodd" clip-rule="evenodd" d="M14.2908 5.00622V3.52122H15.3719V0H0V3.52122H1.08106V5.00622C1.08106 7.42867 2.39617 9.54494 4.34561 10.6944C2.39617 11.8439 1.08106 13.9602 1.08106 16.3827V17.8677H0V21.3889H15.3719V17.8677H14.2908V16.3827C14.2908 13.9602 12.9757 11.8439 11.0263 10.6944C12.9757 9.54494 14.2908 7.42867 14.2908 5.00622ZM12.4574 16.3826V17.8676H2.91431V16.3826C2.91431 13.7518 5.05503 11.6111 7.68586 11.6111C10.3167 11.6111 12.4574 13.7518 12.4574 16.3826ZM7.68586 9.7778C5.05503 9.7778 2.91431 7.63707 2.91431 5.00624V3.52124H12.4574V5.00624C12.4574 7.63707 10.3167 9.7778 7.68586 9.7778Z" transform="translate(0.0556641)" fill="#95A5A6"/>
</svg>
