<svg width="18" height="18" viewBox="0 0 18 18" fill="none" xmlns="http://www.w3.org/2000/svg">
<path fill-rule="evenodd" clip-rule="evenodd" d="M16.3417 17.5385H4.476C4.09385 17.5385 3.78369 17.2288 3.78369 16.8462C3.78369 10.4525 8.96815 9.82338 9.02031 9.81785C9.85015 9.726 10.2882 10.2235 10.2882 10.7049V11.1088L12.4371 9.38262L10.2882 7.662V8.05754C10.2882 8.38892 10.0929 8.68431 9.76523 8.84769C9.57831 8.94139 9.354 8.99077 9.11585 8.99077L9.02631 8.98985C8.41569 8.98985 3.01477 9.11031 1.33477 13.2803C1.21062 13.5882 0.886154 13.7635 0.560769 13.7012C0.235385 13.638 0 13.3532 0 13.0214V1.19723C0 0.537231 0.537231 0 1.19723 0H16.3417C17.0017 0 17.5389 0.537231 17.5389 1.19723V16.3417C17.5389 17.0017 17.0017 17.5385 16.3417 17.5385ZM5.19314 16.1538H16.1542V1.38452H1.38452V10.6208C3.88144 7.8576 7.98268 7.62314 8.90344 7.60606V6.78729C8.90344 6.22237 9.29621 5.79591 9.81637 5.79591C10.0134 5.79591 10.2147 5.86006 10.3984 5.98052C10.4164 5.99206 10.4339 6.00498 10.451 6.01883L13.6102 8.54806C13.8991 8.75068 14.0644 9.05298 14.0644 9.3816C14.0648 9.71021 13.9001 10.0121 13.6116 10.2151L10.4514 12.7536C10.4344 12.767 10.4168 12.7799 10.3984 12.7919C9.95344 13.085 9.39498 13.0056 9.10606 12.6262C8.9736 12.4522 8.90344 12.2307 8.90344 11.9865V11.243C8.05468 11.4359 5.47283 12.3354 5.19314 16.1538ZM9.16532 11.1739C9.18608 11.185 9.20408 11.1915 9.21885 11.1938L9.09424 10.5061L9.16532 11.1739Z" fill="#9BA3AF"/>
</svg>
