<svg width="18" height="20" viewBox="0 0 18 20" fill="none" xmlns="http://www.w3.org/2000/svg">
<path fill-rule="evenodd" clip-rule="evenodd" d="M17.5517 15.3894C14.7178 13.6394 14.8695 7.95278 14.8728 7.86778C14.8728 5.21333 13.1084 2.96389 10.6917 2.22667V1.71778C10.6917 0.770555 9.92117 0 8.97395 0C8.02728 0 7.25617 0.770555 7.25617 1.71778V2.22667C4.8395 2.96444 3.07562 5.21833 3.07617 7.89667C3.13006 9.48667 2.75562 13.9328 0.395615 15.3894C0.078393 15.585 -0.0699403 15.9672 0.0317264 16.3261C0.133949 16.6844 0.460615 16.9317 0.833393 16.9317H5.82284C6.15228 18.3683 7.43839 19.4444 8.97395 19.4444C10.5095 19.4444 11.7956 18.3683 12.1256 16.9317H17.1139C17.4873 16.9317 17.8145 16.6844 17.9162 16.3261C18.0173 15.9672 17.8689 15.585 17.5517 15.3894V15.3894ZM8.2261 15.2651H2.8811C4.8711 12.4562 4.74944 8.06845 4.74221 7.8679C4.74221 5.53456 6.64055 3.63623 8.97444 3.63623C11.3078 3.63623 13.2061 5.53456 13.2067 7.83901C13.1989 8.06401 13.0767 12.4557 15.0672 15.2651H8.2261V15.2651Z" transform="translate(0 0.5)" fill="#95A5A6"/>
</svg>
