<svg width="20" height="21" viewBox="0 0 20 21" fill="none" xmlns="http://www.w3.org/2000/svg">
<path fill-rule="evenodd" clip-rule="evenodd" d="M9.72278 0C4.36222 0 0 4.36167 0 9.72278C0 15.0833 4.36222 19.4444 9.72278 19.4444C15.0833 19.4444 19.4444 15.0833 19.4444 9.72278C19.4444 4.36167 15.0833 0 9.72278 0ZM7.45557 17.4477V13.7622C7.45557 12.7094 8.31168 11.8533 9.3639 11.8533H10.0822C11.135 11.8533 11.9911 12.7094 11.9911 13.7622V17.4472C11.2706 17.6594 10.5111 17.7777 9.72279 17.7777C8.93557 17.7777 8.17501 17.6594 7.45557 17.4477ZM13.6229 16.7656V13.7623C13.6229 11.8095 12.0351 10.2212 10.0823 10.2212H9.36397C7.41064 10.2212 5.82286 11.8095 5.82286 13.7623V16.7656C3.3473 15.3895 1.66675 12.7495 1.66675 9.72286C1.66675 5.28008 5.28064 1.66675 9.72286 1.66675C14.1651 1.66675 17.7779 5.28008 17.7779 9.72286C17.7779 12.7495 16.0984 15.3895 13.6229 16.7656Z" transform="translate(0.277344 1.02222)" fill="#95A5A6"/>
<path fill-rule="evenodd" clip-rule="evenodd" d="M2.35833 0C1.05611 0 0 1.05611 0 2.35833C0 3.66056 1.05611 4.71667 2.35833 4.71667C3.66056 4.71667 4.71667 3.66056 4.71667 2.35833C4.71667 1.05611 3.66056 0 2.35833 0Z" transform="translate(7.6416 5.57446)" fill="#95A5A6"/>
</svg>
