<svg width="22" height="22" viewBox="0 0 22 22" fill="none" xmlns="http://www.w3.org/2000/svg">
<path fill-rule="evenodd" clip-rule="evenodd" d="M21.1933 7.82161C21.1933 3.50839 17.6849 0 13.3717 0C10.538 0 8.05933 1.52044 6.68678 3.78339C2.96022 4.02111 0 7.11944 0 10.9041C0 14.5322 2.72067 17.5309 6.22783 17.9832V20.4722C6.22783 20.8554 6.46678 21.1994 6.82672 21.3321C6.93 21.3706 7.03756 21.3883 7.1445 21.3883C7.40667 21.3883 7.66333 21.2758 7.84056 21.0681L12.3579 15.7868C12.3958 15.7428 12.4276 15.6958 12.4551 15.6469V18.4293C12.4551 18.8131 12.6946 19.1565 13.0546 19.2897C13.1578 19.3276 13.2654 19.3459 13.3717 19.3459C13.6345 19.3459 13.8912 19.2329 14.069 19.0251L19.0764 13.1701C19.0942 13.1493 19.1064 13.1267 19.1223 13.1047C20.4032 11.7113 21.1933 9.85906 21.1933 7.82161ZM13.3717 1.83325C16.6735 1.83325 19.36 4.5197 19.36 7.82153C19.36 11.1228 16.6735 13.8092 13.3717 13.8092C10.0705 13.8092 7.38403 11.1228 7.38403 7.82153C7.38403 4.5197 10.0705 1.83325 13.3717 1.83325ZM1.83325 10.9041C1.83325 8.42848 3.53825 6.34887 5.8342 5.76343C5.65453 6.42037 5.55064 7.10848 5.55064 7.82165C5.55064 11.0966 7.57647 13.9034 10.4383 15.0664C9.50392 15.8095 8.35564 16.2153 7.14442 16.2153C4.21597 16.2153 1.83325 13.8325 1.83325 10.9041Z" transform="translate(0.40332 0.574463)" fill="#95A5A6"/>
<path fill-rule="evenodd" clip-rule="evenodd" d="M0.916667 1.83333H3.93067C4.43667 1.83333 4.84733 1.42267 4.84733 0.916667C4.84733 0.411278 4.43667 0 3.93067 0H0.916667C0.410056 0 0 0.411278 0 0.916667C0 1.42267 0.410056 1.83333 0.916667 1.83333Z" transform="translate(11.3521 6.16675)" fill="#95A5A6"/>
<path fill-rule="evenodd" clip-rule="evenodd" d="M0.916667 1.83333H3.93067C4.43667 1.83333 4.84733 1.42267 4.84733 0.916667C4.84733 0.411278 4.43667 0 3.93067 0H0.916667C0.410056 0 0 0.411278 0 0.916667C0 1.42267 0.410056 1.83333 0.916667 1.83333Z" transform="translate(11.3521 9.29858)" fill="#95A5A6"/>
</svg>
