<svg width="20" height="20" viewBox="0 0 20 20" fill="none" xmlns="http://www.w3.org/2000/svg">
<path fill-rule="evenodd" clip-rule="evenodd" d="M19.196 18.0222L16.1343 14.9611C16.1038 14.93 16.0638 14.9167 16.0299 14.8911C19.0104 11.33 18.8326 6.00333 15.4871 2.65778C13.7732 0.943889 11.4943 0 9.07042 0C6.64653 0 4.36764 0.943889 2.65375 2.65778C-0.884583 6.19611 -0.884583 11.9539 2.65375 15.4917C4.36764 17.2061 6.64653 18.15 9.07042 18.15C11.2226 18.15 13.2582 17.4028 14.8876 16.0361C14.9121 16.0694 14.9254 16.1089 14.956 16.1394L18.0171 19.2006C18.1799 19.3633 18.3932 19.4444 18.6065 19.4444C18.8199 19.4444 19.0332 19.3633 19.196 19.2006C19.5215 18.875 19.5215 18.3472 19.196 18.0222ZM9.07035 16.4834C7.09147 16.4834 5.23091 15.7123 3.83202 14.3134C0.943688 11.4251 0.943688 6.72564 3.83202 3.83619C5.23091 2.4373 7.09147 1.66675 9.07035 1.66675C11.0492 1.66675 12.9098 2.4373 14.3087 3.83619C17.197 6.72564 17.197 11.4251 14.3087 14.3134C12.9092 15.7123 11.0492 16.4834 9.07035 16.4834Z" transform="translate(0 0.5)" fill="#95A5A6"/>
</svg>
